<svg width="400" height="400" viewBox="0 0 400 400" fill="none" xmlns="http://www.w3.org/2000/svg">
<rect width="400" height="400" rx="80" fill="#37B7FF"/>
<path d="M165.297 300.95C165.297 290.683 169.03 264.667 176.497 222.9C184.197 181.133 188.047 158.15 188.047 153.95C188.047 149.517 186.764 147.3 184.197 147.3C181.864 147.3 178.597 149.75 174.397 154.65C170.197 159.55 166.697 164.333 163.897 169L159.347 176.35C140.68 206.917 119.564 247.4 95.9969 297.8C91.3302 308.067 86.8969 314.6 82.6969 317.4C78.4969 320.433 72.4302 321.95 64.4969 321.95C56.7969 321.95 52.9469 320.2 52.9469 316.7V315.65C52.9469 312.617 58.8969 301.533 70.7969 282.4C116.297 209.367 149.547 151.617 170.547 109.15C175.914 98.4167 178.597 88.7333 178.597 80.1V74.5C178.597 72.8667 179.18 71.2333 180.347 69.6C181.747 67.7333 185.83 65.8667 192.597 64C199.364 61.9 208.697 60.85 220.597 60.85C238.564 60.85 247.547 64.2333 247.547 71C247.547 73.1 242.764 95.7333 233.197 138.9C223.63 182.067 218.847 208.2 218.847 217.3C218.847 226.167 219.78 230.6 221.647 230.6C224.447 230.6 227.364 229.083 230.397 226.05C233.43 223.017 235.764 220.1 237.397 217.3L239.847 212.75C254.78 188.25 268.197 163.983 280.097 139.95C291.997 115.683 300.747 97.8333 306.347 86.4C311.947 74.9666 316.847 67.7333 321.047 64.7C327.114 61.2 334.814 59.45 344.147 59.45C353.48 59.45 358.147 60.85 358.147 63.65V64.35C358.147 65.9833 351.964 75.7833 339.597 93.75C327.23 111.717 310.78 137.033 290.247 169.7C269.947 202.133 252.214 233.167 237.047 262.8C230.514 277.967 227.247 290.1 227.247 299.2C227.247 302 226.664 304.1 225.497 305.5C224.564 306.9 220.947 308.183 214.647 309.35C208.58 310.75 202.28 311.45 195.747 311.45H184.547C181.98 311.45 178.83 310.867 175.097 309.7C168.564 307.833 165.297 304.917 165.297 300.95Z" fill="white"/>
</svg>
