<svg width="580" height="152" viewBox="0 0 580 152" fill="none" xmlns="http://www.w3.org/2000/svg">
<path d="M65 138.4C65 132.533 67.1333 117.667 71.4 93.8C75.8 69.9333 78 56.8 78 54.4C78 51.8667 77.2667 50.6 75.8 50.6C74.4667 50.6 72.6 52 70.2 54.8C67.8 57.6 65.8 60.3333 64.2 63L61.6 67.2C50.9333 84.6667 38.8667 107.8 25.4 136.6C22.7333 142.467 20.2 146.2 17.8 147.8C15.4 149.533 11.9333 150.4 7.4 150.4C3 150.4 0.8 149.4 0.8 147.4V146.8C0.8 145.067 4.2 138.733 11 127.8C37 86.0667 56 53.0667 68 28.8C71.0667 22.6667 72.6 17.1333 72.6 12.2V9C72.6 8.06666 72.9333 7.13333 73.6 6.2C74.4 5.13333 76.7333 4.06666 80.6 2.99999C84.4667 1.79999 89.8 1.19999 96.6 1.19999C106.867 1.19999 112 3.13333 112 7C112 8.2 109.267 21.1333 103.8 45.8C98.3333 70.4667 95.6 85.4 95.6 90.6C95.6 95.6667 96.1333 98.2 97.2 98.2C98.8 98.2 100.467 97.3333 102.2 95.6C103.933 93.8667 105.267 92.2 106.2 90.6L107.6 88C116.133 74 123.8 60.1333 130.6 46.4C137.4 32.5333 142.4 22.3333 145.6 15.8C148.8 9.26666 151.6 5.13332 154 3.4C157.467 1.39999 161.867 0.399988 167.2 0.399988C172.533 0.399988 175.2 1.19999 175.2 2.79999V3.19999C175.2 4.13333 171.667 9.73333 164.6 20C157.533 30.2667 148.133 44.7333 136.4 63.4C124.8 81.9333 114.667 99.6667 106 116.6C102.267 125.267 100.4 132.2 100.4 137.4C100.4 139 100.067 140.2 99.4 141C98.8667 141.8 96.8 142.533 93.2 143.2C89.7333 144 86.1333 144.4 82.4 144.4H76C74.5333 144.4 72.7333 144.067 70.6 143.4C66.8667 142.333 65 140.667 65 138.4ZM266.556 35.2C266.556 42.6667 265.023 51.2 261.956 60.8C259.023 70.4 254.623 80.2 248.756 90.2C242.89 100.2 236.09 109.467 228.356 118C220.756 126.4 211.69 133.333 201.156 138.8C190.756 144.133 179.956 146.8 168.756 146.8C157.69 146.8 148.956 143.733 142.556 137.6C136.156 131.333 132.956 122.733 132.956 111.8C132.956 104.333 134.423 95.8 137.356 86.2C140.423 76.6 144.89 66.8 150.756 56.8C156.623 46.8 163.356 37.6 170.956 29.2C178.69 20.8 187.756 13.9333 198.156 8.59999C208.69 3.13332 219.49 0.399988 230.556 0.399988C241.756 0.399988 250.556 3.46666 256.956 9.59999C263.356 15.7333 266.556 24.2667 266.556 35.2ZM242.956 33.4C242.956 18.7333 237.623 11.4 226.956 11.4C218.023 11.4 208.023 17.0667 196.956 28.4C186.023 39.7333 176.69 53.4667 168.956 69.6C161.356 85.6 157.556 99.9333 157.556 112.6C157.556 127.267 162.89 134.6 173.556 134.6C182.356 134.6 192.29 128.933 203.356 117.6C214.423 106.267 223.756 92.6 231.356 76.6C239.09 60.4667 242.956 46.0667 242.956 33.4ZM384.523 0.399988C386.39 0.399988 387.323 1.73332 387.323 4.4C387.323 6.93333 384.723 12.9333 379.523 22.4C374.323 31.8667 369.99 39 366.523 43.8C364.39 47 361.857 48.6 358.923 48.6C356.123 48.6 354.723 47.6667 354.723 45.8L354.923 44C356.657 37.4667 357.523 31.9333 357.523 27.4C357.523 20.4667 355.657 17 351.923 17C350.323 17 348.723 17.6 347.123 18.8C345.523 19.8667 344.323 21 343.523 22.2L342.323 24C340.457 27.0667 329.19 46.1333 308.523 81.2C303.857 89.2 299.057 98.3333 294.123 108.6C289.19 118.733 285.19 126.733 282.123 132.6C279.057 138.333 275.99 142.4 272.923 144.8C269.857 147.333 264.857 148.6 257.923 148.6C251.123 148.6 247.723 147.467 247.723 145.2V144.6C247.723 143.267 251.257 137 258.323 125.8C284.323 84.8667 303.99 51.4 317.323 25.4C318.523 23 319.123 21.2667 319.123 20.2C319.123 18.4667 317.99 17.6 315.723 17.6C308.39 17.6 297.19 25.8667 282.123 42.4C280.657 45.0667 277.257 46.4 271.923 46.4C270.723 46.4 270.123 45.8 270.123 44.6C270.123 43.6667 270.99 41.7333 272.723 38.8L276.723 31.6C288.457 11.0667 296.123 0.799995 299.723 0.799995C306.657 0.799995 311.857 2.13333 315.323 4.79999C324.657 4.53333 333.257 4.4 341.123 4.4C348.99 4.4 356.79 4.53333 364.523 4.79999C371.19 1.86666 377.857 0.399988 384.523 0.399988ZM413.286 77L396.286 76.4C387.886 76.4 381.419 79.1333 376.886 84.6C373.686 88.6 369.419 95.1333 364.086 104.2C358.886 113.267 356.286 120.467 356.286 125.8C356.286 130.733 361.153 133.2 370.886 133.2C376.886 133.2 383.286 132.067 390.086 129.8C403.819 125.267 414.686 116.6 422.686 103.8C423.619 102.6 425.219 102 427.486 102C429.753 102 430.886 103.333 430.886 106C430.886 108.533 428.753 113.933 424.486 122.2C420.219 130.467 416.419 136.667 413.086 140.8C411.353 142.933 407.953 144.133 402.886 144.4C397.953 144.667 390.353 144.8 380.086 144.8H360.486L349.086 144.6L343.686 144.2C343.553 144.2 343.086 144.2 342.286 144.2C341.486 144.2 340.486 144.8 339.286 146C334.886 149.867 328.619 151.8 320.486 151.8C316.619 151.8 314.686 150.933 314.686 149.2V148.6C314.686 147.133 319.286 138.467 328.486 122.6C337.819 106.6 348.153 88.8 359.486 69.2C370.819 49.6 378.086 36.2 381.286 29C384.486 21.6667 386.086 15.4 386.086 10.2V8C386.086 5.73333 400.286 4.59999 428.686 4.59999C438.019 4.59999 446.153 4.73333 453.086 4.99999C455.086 2.73333 460.219 1.6 468.486 1.6C471.953 1.6 473.686 2.46666 473.686 4.2C473.686 7.26667 470.619 13.4667 464.486 22.8C458.486 32 453.219 38.2667 448.686 41.6C447.219 42.8 445.353 43.4 443.086 43.4C440.819 43.4 439.686 42.9333 439.686 42C439.686 41.6 439.886 41.0667 440.286 40.4C442.419 36.2667 443.486 31.6 443.486 26.4C443.486 19.0667 438.419 15.4 428.286 15.4C422.153 15.4 417.286 17 413.686 20.2C410.219 23.4 406.753 27.8667 403.286 33.6C399.819 39.3333 397.219 44.2667 395.486 48.4C393.886 52.5333 393.086 55.1333 393.086 56.2C393.086 59.4 394.619 61.4 397.686 62.2C400.886 62.8667 407.153 63.2 416.486 63.2L431.286 62.6C432.619 62.6 433.286 63.1333 433.286 64.2C433.286 65.1333 432.553 66.8 431.086 69.2C429.753 71.4667 428.353 73.0667 426.886 74C423.953 76 419.419 77 413.286 77ZM538.703 96.2C538.703 110.333 532.836 122.2 521.103 131.8C509.503 141.267 494.636 146 476.503 146C466.503 146 458.903 144.533 453.703 141.6C453.17 141.333 452.57 141.2 451.903 141.2C451.236 141.2 448.77 141.933 444.503 143.4C440.236 144.867 435.903 145.6 431.503 145.6C427.236 145.6 425.103 144.333 425.103 141.8C425.103 138.333 429.303 129.333 437.703 114.8C446.103 100.133 453.57 90.2667 460.103 85.2C462.903 83.0667 465.636 82 468.303 82C470.97 82 472.303 82.7333 472.303 84.2C472.303 84.4667 471.37 86.1333 469.503 89.2C467.77 92.1333 465.97 96.0667 464.103 101C462.37 105.933 461.503 110.2 461.503 113.8C461.503 117.267 461.836 120.2 462.503 122.6C463.303 125 465.17 127.467 468.103 130C471.17 132.4 474.836 133.6 479.103 133.6C483.503 133.6 487.57 133.067 491.303 132C495.17 130.933 498.97 129.267 502.703 127C506.436 124.733 509.503 121.4 511.903 117C514.303 112.6 515.503 107.533 515.503 101.8C515.503 95.9333 513.703 90 510.103 84C506.503 78 502.57 72.9333 498.303 68.8C494.036 64.5333 490.103 59.7333 486.503 54.4C482.903 48.9333 481.103 43.6667 481.103 38.6C481.103 33.4 482.436 28.6 485.103 24.2C487.903 19.8 491.303 16.3333 495.303 13.8C499.436 11.1333 504.103 8.93333 509.303 7.2C518.103 4.26666 525.903 2.79999 532.703 2.79999C539.503 2.79999 544.503 3.13333 547.703 3.79999C551.036 4.33333 553.503 4.86666 555.103 5.4C556.836 5.93333 557.903 6.2 558.303 6.2C558.703 6.2 559.236 6 559.903 5.59999C563.903 3.33332 568.236 2.19999 572.903 2.19999C577.57 2.19999 579.903 3.33332 579.903 5.59999C579.903 9.33333 575.436 17.7333 566.503 30.8C557.703 43.7333 551.103 50.2 546.703 50.2C543.103 50.2 541.303 49.4 541.303 47.8C541.303 47.5333 541.77 46.6 542.703 45C545.636 39.6667 547.103 33.6 547.103 26.8C547.103 23.0667 545.503 20.2 542.303 18.2C539.103 16.0667 535.77 15 532.303 15C528.97 15 525.503 15.5333 521.903 16.6C518.436 17.6667 514.903 19.8 511.303 23C507.836 26.2 506.103 30.0667 506.103 34.6C506.103 39 507.77 43.6667 511.103 48.6C514.57 53.4 518.303 57.8667 522.303 62C526.436 66 530.17 71.1333 533.503 77.4C536.97 83.5333 538.703 89.8 538.703 96.2Z" fill="white"/>
</svg>
